# xmcd
#
# Track frame offsets: 
#        150
#        4400
#        21912
#        31365
#        49217
#        62242
#        76582
#        94532
#        110475
#        128785
#        140990
#        155295
#        165190
#
# Disc length: 2503 seconds
#
# Revision: 7
# Processed by: cddbd v1.5.2PL0 Copyright (c) Steve Scherf et al.
# Submitted via: ExactAudioCopy v0.99pb5
#
DISCID=a109c50d
DTITLE=Salt - Auscultate
DYEAR=1996
DGENRE=Rock
TTITLE0=Impro
TTITLE1=Honour Me
TTITLE2=Beauty
TTITLE3=God Damn Carneval
TTITLE4=Obsession
TTITLE5=Bluster
TTITLE6=Lids
TTITLE7=So
TTITLE8=Witty
TTITLE9=So I Ached
TTITLE10=Flutter
TTITLE11=Sense
TTITLE12=Undressed
EXTD=
EXTT0=
EXTT1=
EXTT2=
EXTT3=
EXTT4=
EXTT5=
EXTT6=
EXTT7=
EXTT8=
EXTT9=
EXTT10=
EXTT11=
EXTT12=
PLAYORDER=
